<?xml version="1.0" encoding="UTF-8" standalone="no"?>
<svg
   xmlns:dc="http://purl.org/dc/elements/1.1/"
   xmlns:cc="http://creativecommons.org/ns#"
   xmlns:rdf="http://www.w3.org/1999/02/22-rdf-syntax-ns#"
   xmlns:svg="http://www.w3.org/2000/svg"
   xmlns="http://www.w3.org/2000/svg"
   xmlns:sodipodi="http://sodipodi.sourceforge.net/DTD/sodipodi-0.dtd"
   xmlns:inkscape="http://www.inkscape.org/namespaces/inkscape"
   version="1.0"
   inkscape:output_extension="org.inkscape.output.svg.inkscape"
   sodipodi:docname="card-front.svg"
   inkscape:version="1.0beta2 (2b71d25, 2019-12-03)"
   sodipodi:version="0.32"
   id="svg2"
   xml:space="preserve"
   viewBox="0 0 167.07959 242.66504"
   height="303"
   width="208"><style></style><metadata
   id="metadata498"><rdf:RDF><cc:Work
       rdf:about=""><dc:format>image/svg+xml</dc:format><dc:type
         rdf:resource="http://purl.org/dc/dcmitype/StillImage" /><dc:title></dc:title></cc:Work></rdf:RDF></metadata><defs
   id="defs496" /><sodipodi:namedview
   inkscape:snap-text-baseline="true"
   inkscape:window-maximized="0"
   showgrid="false"
   inkscape:document-rotation="0"
   inkscape:current-layer="Layer_x0020_1"
   inkscape:window-y="23"
   inkscape:window-x="-4"
   inkscape:cy="145.83134"
   inkscape:cx="104.22049"
   inkscape:zoom="1.2428655"
   height="303px"
   width="208px"
   id="base"
   pagecolor="#ffffff"
   bordercolor="#989cc7"
   borderopacity="1.0"
   objecttolerance="10.0"
   gridtolerance="10.0"
   guidetolerance="10.0"
   inkscape:pageopacity="0.0"
   inkscape:pageshadow="2"
   inkscape:window-width="1280"
   inkscape:window-height="1003" />
	<g
   transform="matrix(1,0,0,1.0029936,0,-0.363221)"
   style="fill:#989cc7;fill-rule:nonzero;stroke:#989cc7;stroke-width:1;stroke-miterlimit:4"
   id="Layer_x0020_1">
		<path
   id="path5"
   d="M 166.82959,235.5459 C 166.82959,239.32031 163.74365,242.41504 159.95947,242.41504 L 7.1108398,242.41504 C 3.3359375,242.41504 0.25,239.32031 0.25,235.5459 L 0.25,7.1201172 C 0.25,3.3408203 3.3359375,0.25 7.1108398,0.25 L 159.95947,0.25 C 163.74365,0.25 166.82959,3.3408203 166.82959,7.1201172 L 166.82959,235.5459 L 166.82959,235.5459 z "
   style="fill:#ffffff;stroke-width:0.49925327" />
		<path
   inkscape:connector-curvature="0"
   id="path7"
   d="m 26.988464,33.25619 c 34.481933,0 68.964355,0 103.445796,0 0.8125,0 8.62793,-0.37207 8.62793,0.293946 0,3.737304 0,7.474121 0,11.211426 0,18.551269 0,37.102539 0,55.653808 0,35.99951 0,71.99951 0,107.99951 0,0.25586 0.17382,1.42383 -0.14258,1.42383 -1.5459,0 -3.09082,0 -4.63574,0 -8.02442,0 -16.04786,0 -24.07129,0 -21.773433,0 -43.545894,0 -65.318843,0 -5.742188,0 -11.484375,0 -17.226074,0 -1.461426,0 -0.679199,-4.0625 -0.679199,-5.22461 0,-16.20313 0,-32.40625 0,-48.60938 0,-39.08789 0,-78.175287 0,-117.263178 0,-1.828613 0,-3.656738 0,-5.485352"
   style="stroke-miterlimit:10;stroke-width:1;stroke:#989cc7;fill-rule:evenodd;fill-opacity:1;fill:#ffffff" />
		
		
		
		
		
		
		
		
		
		
		
		
		
		
		
		
		
		
		
		
		
		
		
		
		
		
		
		<path
   id="path63"
   d="M 69.711914,24.821289 C 68.894043,22.796875 68.028809,20.734863 67.467774,18.619629 C 66.961914,16.713379 66.559082,12.05957 69.095215,11.144531 C 71.52832,10.267578 72.412598,14.474121 72.380859,16.126953 C 72.333008,18.609863 71.152832,21.146484 70.26416,23.428711 C 70.083496,23.893555 69.898926,24.359863 69.711914,24.821289"
   style="fill-rule:evenodd;stroke:none" />
		<path
   id="path65"
   d="M 69.699219,24.867188 C 67.687988,24.020508 65.44873,23.190918 63.668457,21.905273 C 62.088379,20.763672 59.571777,17.380371 61.040039,15.311035 C 62.521973,13.222168 65.614258,15.616211 66.613281,17.027344 C 68.046387,19.050293 68.719727,21.817383 69.472168,24.151855 C 69.548828,24.389648 69.624023,24.630371 69.699219,24.867187"
   style="fill-rule:evenodd;stroke:none" />
		<path
   id="path67"
   d="M 69.705566,24.867188 C 71.716797,24.02002 73.955566,23.190918 75.736328,21.905273 C 77.316406,20.76416 79.832519,17.379883 78.364746,15.311035 C 76.882812,13.22168 73.790039,15.616211 72.791016,17.027344 C 71.330078,19.090332 70.645996,21.926758 69.881836,24.30957 C 69.822754,24.494629 69.763672,24.683106 69.705566,24.867188"
   style="fill-rule:evenodd;stroke:none" />
		<path
   id="path69"
   d="M 64.552246,25.144531 C 62.924805,24.661621 60.90918,24.821289 59.869141,26.329102 C 59.314941,27.132813 59.188965,30.24707 60.953125,29.641602 C 61.260742,29.536133 61.512207,28.170899 61.887207,27.856445 C 62.602051,27.256836 63.940918,27.275391 64.809082,27.206055 C 65.977051,27.11377 67.189941,27.238281 68.337891,27.07959 C 68.339355,27.072754 68.341309,27.066406 68.344727,27.060059 C 67.256836,26.217285 65.870117,25.552246 64.552246,25.144531"
   style="fill-rule:evenodd;stroke:none" />
		<path
   id="path71"
   d="M 74.772461,25.144531 C 76.399902,24.661133 78.415527,24.821289 79.455078,26.329102 C 80.009277,27.132813 80.135742,30.247559 78.371094,29.641602 C 78.063477,29.536133 77.8125,28.171387 77.4375,27.856445 C 76.723145,27.256836 75.383789,27.275391 74.515625,27.206055 C 73.347168,27.11377 72.134766,27.238281 70.986328,27.07959 C 70.984863,27.072754 70.98291,27.066406 70.979492,27.060059 C 72.067871,26.217285 73.454102,25.552246 74.772461,25.144531"
   style="fill-rule:evenodd;stroke:none" />
		<path
   id="path73"
   d="M 68.328125,29.629883 C 68.565918,31.663574 72.092285,30.674805 70.405762,27.875977 C 69.221191,25.90918 68.54248,27.749512 68.328125,29.629883"
   style="fill-rule:evenodd;stroke:none" />
		<path
   id="path75"
   d="M 97.72998,24.821289 C 96.911621,22.797363 96.046387,20.734375 95.48584,18.619629 C 94.97998,16.713379 94.577637,12.060059 97.112793,11.144531 C 99.546387,10.266602 100.43115,14.474609 100.39893,16.126953 C 100.35107,18.610352 99.171387,21.146484 98.282715,23.428711 C 98.101074,23.893555 97.91748,24.359375 97.72998,24.821289"
   style="fill-rule:evenodd;stroke:none" />
		<path
   id="path77"
   d="M 97.717285,24.867188 C 95.706543,24.020508 93.466309,23.190918 91.687012,21.905273 C 90.106934,20.763672 87.590332,17.379883 89.058106,15.311035 C 90.540527,13.222656 93.632324,15.615723 94.632324,17.027344 C 96.064942,19.050293 96.737793,21.817871 97.489746,24.151855 C 97.566895,24.389648 97.64209,24.630371 97.717285,24.867187"
   style="fill-rule:evenodd;stroke:none" />
		<path
   id="path79"
   d="M 97.724121,24.867188 C 99.734863,24.02002 101.97412,23.190918 103.75439,21.905273 C 105.33545,20.763672 107.85107,17.380371 106.38232,15.311035 C 104.90088,13.222168 101.80811,15.616211 100.80908,17.027344 C 99.347168,19.090332 98.665527,21.926758 97.900879,24.30957 C 97.841309,24.495117 97.782715,24.682617 97.724121,24.867188"
   style="fill-rule:evenodd;stroke:none" />
		<path
   id="path81"
   d="M 92.569824,25.144531 C 90.942871,24.661133 88.927246,24.821777 87.888184,26.329102 C 87.333496,27.133301 87.206543,30.247559 88.972168,29.641602 C 89.278809,29.536133 89.530762,28.170899 89.905762,27.856445 C 90.619629,27.256836 91.959473,27.275391 92.827637,27.206055 C 93.995606,27.11377 95.208496,27.238281 96.355957,27.07959 C 96.356934,27.072754 96.359863,27.066406 96.362793,27.060059 C 95.273926,26.217285 93.88916,25.552246 92.569824,25.144531"
   style="fill-rule:evenodd;stroke:none" />
		<path
   id="path83"
   d="M 102.79053,25.144531 C 104.41748,24.661133 106.43408,24.821777 107.47412,26.329102 C 108.02783,27.132813 108.15381,30.24707 106.39014,29.641602 C 106.08154,29.536133 105.83057,28.170899 105.45557,27.856445 C 104.7417,27.256836 103.40186,27.275391 102.53369,27.206055 C 101.36572,27.113281 100.15283,27.238281 99.004394,27.07959 C 99.003418,27.072754 99.001465,27.066406 98.997559,27.060059 C 100.08643,26.217773 101.47217,25.552246 102.79053,25.144531"
   style="fill-rule:evenodd;stroke:none" />
		<path
   id="path85"
   d="M 96.346191,29.629883 C 96.584473,31.663574 100.11084,30.674805 98.424316,27.875977 C 97.239746,25.908691 96.560059,27.75 96.346191,29.629883"
   style="fill-rule:evenodd;stroke:none" />
		<path
   id="path87"
   d="M 125.74854,24.821289 C 124.93115,22.796387 124.06494,20.734863 123.50342,18.619629 C 122.99854,16.713379 122.59521,12.05957 125.13232,11.144531 C 127.56494,10.26709 128.44873,14.474609 128.41748,16.126953 C 128.36865,18.610352 127.18897,21.145996 126.30029,23.428711 C 126.12061,23.893555 125.93506,24.359863 125.74854,24.821289"
   style="fill-rule:evenodd;stroke:none" />
		<path
   id="path89"
   d="M 125.73584,24.867188 C 123.72412,24.02002 121.48584,23.190918 119.70459,21.905273 C 118.12451,20.763672 115.60889,17.379883 117.07666,15.311035 C 118.55811,13.222168 121.65088,15.616211 122.6499,17.027344 C 124.11084,19.090332 124.79443,21.92627 125.55811,24.30957 C 125.61865,24.495117 125.67725,24.682617 125.73584,24.867188"
   style="fill-rule:evenodd;stroke:none" />
		<path
   id="path91"
   d="M 125.7417,24.867188 C 127.75342,24.020508 129.99268,23.190918 131.77295,21.905273 C 133.35303,20.763672 135.86865,17.379883 134.40186,15.311035 C 132.91943,13.222168 129.82666,15.616211 128.82764,17.027344 C 127.3667,19.090332 126.68311,21.926758 125.91943,24.30957 C 125.85986,24.494629 125.80029,24.683106 125.7417,24.867188"
   style="fill-rule:evenodd;stroke:none" />
		<path
   id="path93"
   d="M 120.58936,25.144531 C 118.96143,24.661133 116.9458,24.821777 115.90576,26.329102 C 115.35107,27.133301 115.2251,30.24707 116.98975,29.641602 C 117.29736,29.536133 117.54834,28.170899 117.92334,27.856445 C 118.63818,27.256836 119.97803,27.275391 120.84521,27.206055 C 122.01416,27.11377 123.22607,27.238281 124.37451,27.07959 C 124.37646,27.072754 124.37842,27.066406 124.38135,27.060059 C 123.29248,26.217285 121.90771,25.552246 120.58936,25.144531"
   style="fill-rule:evenodd;stroke:none" />
		<path
   id="path95"
   d="M 130.80811,25.144531 C 132.43701,24.661621 134.45264,24.821289 135.4917,26.329102 C 136.04639,27.132813 136.17334,30.246582 134.40771,29.641602 C 134.10107,29.536133 133.84912,28.171387 133.47412,27.856445 C 132.75928,27.256836 131.42041,27.275391 130.55225,27.206055 C 129.38428,27.11377 128.17139,27.238281 127.02295,27.07959 C 127.021,27.072754 127.01904,27.066406 127.01709,27.060059 C 128.10498,26.217285 129.49072,25.552246 130.80811,25.144531"
   style="fill-rule:evenodd;stroke:none" />
		<path
   id="path97"
   d="M 124.36475,29.629883 C 124.60303,31.664551 128.12842,30.673828 126.44287,27.875977 C 125.25732,25.908691 124.57959,27.75 124.36475,29.629883"
   style="fill-rule:evenodd;stroke:none" />
		<path
   id="path99"
   d="M 41.693848,24.821289 C 40.875488,22.797363 40.010254,20.734375 39.449219,18.619629 C 38.943359,16.713379 38.541016,12.05957 41.07666,11.144531 C 43.510254,10.266602 44.394043,14.474609 44.362305,16.126953 C 44.314453,18.610352 43.134277,21.145996 42.245605,23.428711 C 42.064941,23.893555 41.880371,24.359375 41.693848,24.821289"
   style="fill-rule:evenodd;stroke:none" />
		<path
   id="path101"
   d="M 41.680664,24.867188 C 39.668945,24.02002 37.430664,23.190918 35.649902,21.905273 C 34.069824,20.763672 31.553711,17.380371 33.021484,15.311035 C 34.503418,13.222168 37.596191,15.616211 38.595215,17.027344 C 40.027832,19.050293 40.70166,21.817871 41.453613,24.151855 C 41.530274,24.389648 41.605469,24.630371 41.680664,24.867187"
   style="fill-rule:evenodd;stroke:none" />
		<path
   id="path103"
   d="M 41.687012,24.867188 C 43.698242,24.020508 45.9375,23.190918 47.717773,21.905273 C 49.297852,20.763672 51.814453,17.380371 50.346191,15.311035 C 48.863769,13.222168 45.771973,15.616211 44.772461,17.027344 C 43.339844,19.050293 42.666504,21.817871 41.914063,24.151855 C 41.837402,24.389648 41.762207,24.629883 41.687012,24.867187"
   style="fill-rule:evenodd;stroke:none" />
		<path
   id="path105"
   d="M 36.533691,25.144531 C 34.90625,24.661133 32.890625,24.821777 31.851074,26.329102 C 31.296875,27.132813 31.17041,30.247559 32.935059,29.641602 C 33.242188,29.536133 33.493652,28.170899 33.868652,27.856445 C 34.583008,27.256836 35.922363,27.275391 36.790527,27.206055 C 37.958984,27.11377 39.171875,27.238281 40.319824,27.07959 C 40.320801,27.072754 40.323242,27.066406 40.32666,27.060059 C 39.238281,26.217773 37.852051,25.551758 36.533691,25.144531"
   style="fill-rule:evenodd;stroke:none" />
		<path
   id="path107"
   d="M 46.753418,25.144531 C 48.381348,24.661621 50.396973,24.821289 51.437012,26.329102 C 51.991211,27.132813 52.117676,30.24707 50.353027,29.641602 C 50.04541,29.536133 49.793945,28.170899 49.418945,27.856445 C 48.70459,27.256836 47.365235,27.275391 46.49707,27.206055 C 45.329102,27.11377 44.116211,27.238281 42.968262,27.07959 C 42.966797,27.072754 42.964356,27.066406 42.961426,27.060059 C 44.049805,26.217285 45.435547,25.552734 46.753418,25.144531"
   style="fill-rule:evenodd;stroke:none" />
		<path
   id="path109"
   d="M 40.30957,29.629883 C 40.547852,31.663574 44.07373,30.674805 42.387695,27.875977 C 41.203125,25.90918 40.523926,27.75 40.30957,29.629883"
   style="fill-rule:evenodd;stroke:none" />
		<path
   id="path111"
   d="M 69.461914,216.98438 C 68.644043,219.00879 67.77832,221.07129 67.217285,223.18555 C 66.711914,225.09082 66.308594,229.74707 68.845215,230.66113 C 71.278809,231.53809 72.162109,227.33105 72.130371,225.67871 C 72.08252,223.19434 70.901856,220.65918 70.01416,218.37695 C 69.833008,217.91211 69.648926,217.44629 69.461914,216.98438"
   style="fill-rule:evenodd;stroke:none" />
		<path
   id="path113"
   d="M 69.44873,216.93848 C 67.437012,217.78418 65.19873,218.61426 63.418457,219.90039 C 61.837891,221.04199 59.321777,224.4248 60.789551,226.49414 C 62.271973,228.58301 65.364258,226.18945 66.363281,224.77832 C 67.796387,222.75488 68.469238,219.9873 69.22168,217.65332 C 69.29834,217.41602 69.373535,217.1748 69.44873,216.93848"
   style="fill-rule:evenodd;stroke:none" />
		<path
   id="path115"
   d="M 69.455566,216.93848 C 71.467285,217.78418 73.705566,218.61426 75.48584,219.90039 C 77.066406,221.04199 79.582031,224.4248 78.114258,226.49414 C 76.632324,228.58301 73.540039,226.18945 72.540527,224.77832 C 71.07959,222.71484 70.395996,219.87891 69.632324,217.49609 C 69.572754,217.31055 69.51416,217.12305 69.455566,216.93848"
   style="fill-rule:evenodd;stroke:none" />
		<path
   id="path117"
   d="M 64.301758,216.66113 C 62.674316,217.14355 60.658691,216.9834 59.619141,215.47559 C 59.064941,214.67285 58.938477,211.55762 60.703125,212.16309 C 61.010254,212.26855 61.262207,213.63379 61.636719,213.94824 C 62.351563,214.54785 63.69043,214.53027 64.559082,214.59863 C 65.727051,214.69141 66.940918,214.56738 68.087891,214.72559 C 68.088867,214.7334 68.091309,214.73926 68.094727,214.74512 C 67.006836,215.58789 65.620117,216.25293 64.301758,216.66113"
   style="fill-rule:evenodd;stroke:none" />
		<path
   id="path119"
   d="M 74.521973,216.66113 C 76.149414,217.14355 78.165527,216.9834 79.205078,215.47559 C 79.759277,214.67285 79.885742,211.55859 78.121094,212.16309 C 77.813965,212.26855 77.562012,213.63379 77.187012,213.94824 C 76.472168,214.54785 75.133789,214.53027 74.265137,214.59863 C 73.097168,214.69141 71.883301,214.56738 70.736328,214.72559 C 70.734863,214.73242 70.732422,214.73926 70.729492,214.74512 C 71.816895,215.58789 73.204102,216.25293 74.521973,216.66113"
   style="fill-rule:evenodd;stroke:none" />
		<path
   id="path121"
   d="M 68.077637,212.17578 C 68.31543,210.1416 71.841797,211.12988 70.155762,213.92871 C 68.971191,215.89648 68.293457,214.05664 68.077637,212.17578"
   style="fill-rule:evenodd;stroke:none" />
		<path
   id="path123"
   d="M 97.47998,216.98438 C 96.661621,219.00879 95.796387,221.07129 95.23584,223.18555 C 94.72998,225.09082 94.327637,229.74609 96.862793,230.66113 C 99.296387,231.53809 100.18115,227.33105 100.14893,225.67871 C 100.10107,223.19629 98.921387,220.65723 98.032715,218.37695 C 97.851074,217.91211 97.66748,217.44629 97.47998,216.98438"
   style="fill-rule:evenodd;stroke:none" />
		<path
   id="path125"
   d="M 97.467285,216.93848 C 95.455566,217.78418 93.216309,218.61426 91.437012,219.90039 C 89.856934,221.04199 87.340332,224.4248 88.808106,226.49414 C 90.290527,228.58301 93.382324,226.18945 94.382324,224.77832 C 95.843262,222.71484 96.525879,219.87891 97.290527,217.49609 C 97.349121,217.31152 97.408692,217.12207 97.467285,216.93848"
   style="fill-rule:evenodd;stroke:none" />
		<path
   id="path127"
   d="M 97.474121,216.93848 C 99.48584,217.78418 101.72412,218.61426 103.50439,219.90039 C 105.08545,221.04199 107.60107,224.4248 106.13232,226.49414 C 104.6499,228.58301 101.55811,226.18945 100.55908,224.77832 C 99.098145,222.71484 98.414551,219.87891 97.649902,217.49609 C 97.591309,217.31152 97.532715,217.12207 97.474121,216.93848"
   style="fill-rule:evenodd;stroke:none" />
		<path
   id="path129"
   d="M 92.319824,216.66113 C 90.692871,217.14355 88.677246,216.9834 87.637207,215.47559 C 87.083496,214.67285 86.956543,211.55762 88.721191,212.16309 C 89.028809,212.26855 89.280762,213.63379 89.655762,213.94824 C 90.370606,214.54785 91.708496,214.53027 92.577637,214.59863 C 93.744629,214.69141 94.959473,214.56738 96.105957,214.72559 C 96.106934,214.73242 96.109863,214.73926 96.112793,214.74512 C 95.024902,215.58789 93.638184,216.25293 92.319824,216.66113"
   style="fill-rule:evenodd;stroke:none" />
		<path
   id="path131"
   d="M 102.54053,216.66113 C 104.16748,217.14355 106.18311,216.9834 107.22412,215.47559 C 107.77686,214.67285 107.90381,211.55859 106.14014,212.16309 C 105.83154,212.26855 105.58057,213.63379 105.20557,213.94824 C 104.49072,214.54785 103.15186,214.53027 102.28271,214.59863 C 101.11572,214.69141 99.901855,214.56738 98.754394,214.72559 C 98.753418,214.7334 98.751465,214.73926 98.747559,214.74512 C 99.835449,215.58789 101.22217,216.25293 102.54053,216.66113"
   style="fill-rule:evenodd;stroke:none" />
		<path
   id="path133"
   d="M 96.095215,212.17578 C 96.334473,210.1416 99.859863,211.12988 98.174316,213.92871 C 96.989746,215.89648 96.312012,214.05664 96.095215,212.17578"
   style="fill-rule:evenodd;stroke:none" />
		<path
   id="path135"
   d="M 125.49854,216.98438 C 124.68018,219.00879 123.81494,221.07129 123.25342,223.18555 C 122.74854,225.09082 122.34521,229.74707 124.88232,230.66113 C 127.31592,231.53809 128.19873,227.33105 128.16748,225.67871 C 128.11963,223.19629 126.94092,220.65723 126.05029,218.37695 C 125.86963,217.91211 125.68506,217.44629 125.49854,216.98438"
   style="fill-rule:evenodd;stroke:none" />
		<path
   id="path137"
   d="M 125.48584,216.93848 C 123.47412,217.78418 121.23486,218.61426 119.45459,219.90039 C 117.87451,221.04199 115.35889,224.4248 116.82568,226.49414 C 118.30811,228.58301 121.40088,226.18945 122.3999,224.77832 C 123.8335,222.75488 124.50635,219.9873 125.25928,217.65332 C 125.33545,217.41602 125.40967,217.1748 125.48584,216.93848"
   style="fill-rule:evenodd;stroke:none" />
		<path
   id="path139"
   d="M 125.4917,216.93848 C 127.50342,217.78418 129.74268,218.61426 131.52295,219.90039 C 133.10303,221.04199 135.61865,224.4248 134.15088,226.49414 C 132.66943,228.58301 129.57666,226.18945 128.57764,224.77832 C 127.14404,222.75488 126.47217,219.9873 125.71826,217.65332 C 125.64209,217.41602 125.56689,217.1748 125.4917,216.93848"
   style="fill-rule:evenodd;stroke:none" />
		<path
   id="path141"
   d="M 120.33838,216.66113 C 118.71045,217.14355 116.69482,216.9834 115.65576,215.47559 C 115.10107,214.67285 114.97412,211.55859 116.73975,212.16309 C 117.04639,212.26855 117.29834,213.63379 117.67334,213.94824 C 118.38818,214.54785 119.72705,214.53027 120.59521,214.59863 C 121.76318,214.69141 122.97803,214.56738 124.12451,214.72559 C 124.12549,214.7334 124.12842,214.73926 124.13135,214.74512 C 123.04248,215.58789 121.65771,216.25293 120.33838,216.66113"
   style="fill-rule:evenodd;stroke:none" />
		<path
   id="path143"
   d="M 130.55811,216.66113 C 132.18604,217.14355 134.20264,216.9834 135.2417,215.47559 C 135.79639,214.67285 135.92236,211.55859 134.15771,212.16309 C 133.85107,212.26855 133.59912,213.63379 133.22412,213.94824 C 132.50928,214.54785 131.17139,214.53027 130.30225,214.59863 C 129.13428,214.69141 127.92041,214.56738 126.77295,214.72559 C 126.771,214.7334 126.76904,214.73926 126.76611,214.74512 C 127.85303,215.58789 129.24072,216.25293 130.55811,216.66113"
   style="fill-rule:evenodd;stroke:none" />
		<path
   id="path145"
   d="M 124.11475,212.17578 C 124.35205,210.1416 127.87842,211.12988 126.19287,213.92871 C 125.00732,215.89648 124.32959,214.05664 124.11475,212.17578"
   style="fill-rule:evenodd;stroke:none" />
		<path
   id="path147"
   d="M 41.443848,216.98438 C 40.625,219.00781 39.759766,221.07129 39.19873,223.18555 C 38.693359,225.09082 38.290527,229.74707 40.82666,230.66113 C 43.259766,231.53809 44.144531,227.33105 44.112305,225.67871 C 44.064453,223.19434 42.883789,220.65918 41.995605,218.37695 C 41.814941,217.91211 41.630371,217.44629 41.443848,216.98438"
   style="fill-rule:evenodd;stroke:none" />
		<path
   id="path149"
   d="M 41.430664,216.93848 C 39.418457,217.78418 37.180176,218.61426 35.399902,219.90039 C 33.819336,221.04199 31.303711,224.4248 32.770996,226.49414 C 34.253418,228.58301 37.345703,226.18848 38.345215,224.77832 C 39.777832,222.75488 40.450684,219.9873 41.203613,217.65332 C 41.280274,217.41699 41.355469,217.1748 41.430664,216.93848"
   style="fill-rule:evenodd;stroke:none" />
		<path
   id="path151"
   d="M 41.437012,216.93848 C 43.44873,217.78418 45.687012,218.61523 47.467285,219.90039 C 49.047852,221.04102 51.563965,224.4248 50.096191,226.49414 C 48.613769,228.58301 45.521973,226.18945 44.522461,224.77832 C 43.061523,222.71484 42.37793,219.87891 41.613769,217.49609 C 41.554199,217.31152 41.495605,217.12207 41.437012,216.93848"
   style="fill-rule:evenodd;stroke:none" />
		<path
   id="path153"
   d="M 36.283691,216.66113 C 34.655762,217.14355 32.640137,216.9834 31.600586,215.47559 C 31.046387,214.67285 30.919922,211.55762 32.68457,212.16309 C 32.991699,212.26855 33.244141,213.63379 33.618652,213.94824 C 34.333496,214.54785 35.671875,214.53027 36.540527,214.59863 C 37.708496,214.69141 38.922363,214.56738 40.069336,214.72559 C 40.070801,214.7334 40.073242,214.73926 40.076172,214.74512 C 38.988281,215.58789 37.602051,216.25293 36.283691,216.66113"
   style="fill-rule:evenodd;stroke:none" />
		<path
   id="path155"
   d="M 46.503418,216.66113 C 48.131348,217.14355 50.146973,216.98438 51.187012,215.47559 C 51.740723,214.67285 51.867188,211.55762 50.102539,212.16309 C 49.79541,212.26855 49.543457,213.63379 49.168945,213.94824 C 48.454102,214.54785 47.115723,214.53027 46.24707,214.59863 C 45.079102,214.69141 43.865234,214.56738 42.717773,214.72559 C 42.716797,214.7334 42.714355,214.73926 42.710938,214.74512 C 43.798828,215.58789 45.185547,216.25293 46.503418,216.66113"
   style="fill-rule:evenodd;stroke:none" />
		<path
   id="path157"
   d="M 40.059082,212.17578 C 40.297851,210.1416 43.822754,211.12988 42.137695,213.92871 C 40.952637,215.89746 40.275879,214.05664 40.059082,212.17578"
   style="fill-rule:evenodd;stroke:none" />
		<path
   id="path159"
   d="M 146.52588,218.3584 C 148.43213,219.37891 150.49365,220.63574 152.60303,221.18066 C 154.52295,221.67676 158.15771,221.19824 158.50732,218.66113 C 158.84521,216.21289 155.38135,215.11328 153.51318,215.33008 C 151.18311,215.60059 148.73975,217.16895 146.69873,218.26172 C 146.64209,218.29199 146.58252,218.32715 146.52588,218.3584"
   style="fill-rule:evenodd;stroke:none" />
		<path
   id="path161"
   d="M 146.48975,218.37305 C 147.31006,220.97168 149.85498,230.89355 154.43701,228.54883 C 156.66943,227.40723 154.87354,223.62793 153.70459,222.34277 C 152.05518,220.53223 149.31982,219.58105 147.10889,218.63574 C 146.90381,218.54687 146.69482,218.45996 146.48975,218.37305"
   style="fill-rule:evenodd;stroke:none" />
		<path
   id="path163"
   d="M 146.48584,218.36523 C 147.30811,215.76465 149.85303,205.83887 154.43701,208.18945 C 156.66748,209.33301 154.87451,213.10059 153.70459,214.3877 C 152.0542,216.2002 149.31885,217.15527 147.10693,218.10449 C 146.8999,218.19238 146.69092,218.27832 146.48584,218.36523"
   style="fill-rule:evenodd;stroke:none" />
		<path
   id="path165"
   d="M 146.24561,224.30957 C 146.6167,225.98145 146.69385,228.48926 145.21826,229.70996 C 144.2583,230.50488 141.7749,230.24316 142.34619,228.45996 C 142.45264,228.12988 143.60693,227.78418 143.89404,227.37988 C 144.48779,226.54199 144.40186,224.97754 144.45752,224.0127 C 144.53467,222.66504 144.41162,221.27539 144.56787,219.94238 C 144.57373,219.94043 144.57959,219.93848 144.58447,219.93457 C 145.35498,221.24512 145.90772,222.8252 146.24561,224.30957"
   style="fill-rule:evenodd;stroke:none" />
		<path
   id="path167"
   d="M 146.24561,212.52148 C 146.61768,210.84766 146.69678,208.34082 145.21826,207.12012 C 144.2583,206.32715 141.77197,206.58496 142.34619,208.37012 C 142.45166,208.69824 143.60889,209.04395 143.89404,209.44824 C 144.48779,210.28516 144.40186,211.85254 144.45752,212.81738 C 144.53467,214.16602 144.41162,215.55469 144.56787,216.8877 C 144.57373,216.88965 144.57959,216.89258 144.58447,216.89551 C 145.35303,215.58691 145.91162,214.00488 146.24561,212.52148"
   style="fill-rule:evenodd;stroke:none" />
		<path
   id="path169"
   d="M 142.35693,219.9541 C 140.52881,219.5127 141.31006,215.55957 143.87744,217.55762 C 145.42139,218.75879 144.25732,219.62988 142.35693,219.9541"
   style="fill-rule:evenodd;stroke:none" />
		<path
   id="path171"
   d="M 146.52881,186.04199 C 148.43506,187.06445 150.49756,188.31934 152.60693,188.86621 C 154.52295,189.3623 158.1626,188.88379 158.50732,186.3457 C 158.83936,183.89941 155.38232,182.79883 153.51318,183.01465 C 151.18506,183.28223 148.73975,184.85254 146.70264,185.94629 C 146.64502,185.97656 146.58545,186.01172 146.52881,186.04199"
   style="fill-rule:evenodd;stroke:none" />
		<path
   id="path173"
   d="M 146.48584,186.05762 C 147.31006,188.65723 149.85303,198.5791 154.43701,196.2334 C 156.66846,195.09082 154.87451,191.31543 153.70459,190.03125 C 152.05225,188.21973 149.31787,187.26758 147.10693,186.31934 C 146.8999,186.23047 146.69092,186.14355 146.48584,186.05762"
   style="fill-rule:evenodd;stroke:none" />
		<path
   id="path175"
   d="M 146.48975,186.0498 C 147.31006,183.44824 149.85303,173.52832 154.43701,175.87402 C 156.66943,177.0166 154.87451,180.79102 153.70459,182.0752 C 152.0542,183.8877 149.31982,184.83984 147.10889,185.78809 C 146.90381,185.87598 146.69482,185.96289 146.48975,186.0498"
   style="fill-rule:evenodd;stroke:none" />
		<path
   id="path177"
   d="M 146.24561,191.98926 C 146.61768,193.66699 146.69678,196.16602 145.21826,197.39063 C 144.26025,198.18457 141.771,197.93457 142.34619,196.14453 C 142.45166,195.81738 143.60889,195.4707 143.89404,195.06738 C 144.48779,194.22949 144.40186,192.66309 144.45752,191.69727 C 144.53467,190.34863 144.41162,188.95996 144.56787,187.62695 C 144.57373,187.625 144.57959,187.62207 144.58447,187.61914 C 145.35303,188.92578 145.91064,190.50684 146.24561,191.98926"
   style="fill-rule:evenodd;stroke:none" />
		<path
   id="path179"
   d="M 146.24561,180.20605 C 146.6167,178.53418 146.69385,176.02637 145.21826,174.80469 C 144.25928,174.01074 141.76904,174.27051 142.34619,176.05469 C 142.45264,176.38184 143.60791,176.72754 143.89404,177.13184 C 144.48779,177.9707 144.40186,179.53613 144.45752,180.50195 C 144.53467,181.85059 144.41162,183.23926 144.56787,184.57227 C 144.57373,184.57422 144.57959,184.57715 144.58447,184.58008 C 145.35498,183.27051 145.90772,181.68945 146.24561,180.20605"
   style="fill-rule:evenodd;stroke:none" />
		<path
   id="path181"
   d="M 142.35693,187.63867 C 140.52881,187.19824 141.31201,183.23926 143.87744,185.2373 C 145.42334,186.44238 144.25732,187.31348 142.35693,187.63867"
   style="fill-rule:evenodd;stroke:none" />
		<path
   id="path183"
   d="M 146.52588,153.72559 C 148.43018,154.75 150.49756,156.00586 152.60693,156.5498 C 154.52686,157.0459 158.15771,156.56738 158.50732,154.03027 C 158.84424,151.58301 155.38232,150.47852 153.51318,150.69434 C 151.18213,150.96484 148.73877,152.53711 146.69873,153.62988 C 146.64209,153.66113 146.5835,153.69531 146.52588,153.72559"
   style="fill-rule:evenodd;stroke:none" />
		<path
   id="path185"
   d="M 146.48584,153.74121 C 147.31006,156.34277 149.85303,166.26367 154.43701,163.91699 C 156.66846,162.77539 154.87451,159 153.70459,157.71582 C 152.05225,155.90332 149.31787,154.95117 147.10693,154.00293 C 146.8999,153.91504 146.69092,153.82813 146.48584,153.74121"
   style="fill-rule:evenodd;stroke:none" />
		<path
   id="path187"
   d="M 146.48584,153.7334 C 147.31006,151.13379 149.85303,141.21191 154.43701,143.55762 C 156.66846,144.7002 154.87451,148.47559 153.70459,149.75977 C 152.05225,151.57129 149.31787,152.52441 147.10693,153.47168 C 146.8999,153.56055 146.69092,153.64746 146.48584,153.7334"
   style="fill-rule:evenodd;stroke:none" />
		<path
   id="path189"
   d="M 146.24561,159.67773 C 146.6167,161.35059 146.69385,163.85742 145.21826,165.0791 C 144.2583,165.87402 141.77197,165.61328 142.34619,163.8291 C 142.45166,163.50098 143.60889,163.15527 143.89404,162.75098 C 144.48779,161.91309 144.40186,160.34668 144.45752,159.38184 C 144.53467,158.04004 144.39209,156.62207 144.57764,155.30762 C 145.36279,156.58301 145.91064,158.20703 146.24561,159.67773"
   style="fill-rule:evenodd;stroke:none" />
		<path
   id="path191"
   d="M 146.24561,147.88965 C 146.6167,146.21777 146.69385,143.70996 145.21826,142.48926 C 144.2583,141.69336 141.77197,141.9541 142.34619,143.73926 C 142.45166,144.06738 143.60889,144.41309 143.89404,144.81641 C 144.48779,145.6543 144.40186,147.2207 144.45752,148.18652 C 144.53467,149.52832 144.39209,150.94629 144.57764,152.26074 C 145.36279,150.98535 145.91064,149.36035 146.24561,147.88965"
   style="fill-rule:evenodd;stroke:none" />
		<path
   id="path193"
   d="M 142.35693,155.32324 C 140.52783,154.88281 141.31201,150.93164 143.87744,152.92188 C 145.42529,154.12402 144.25342,154.99414 142.35693,155.32324"
   style="fill-rule:evenodd;stroke:none" />
		<path
   id="path195"
   d="M 146.52588,89.094727 C 148.43115,90.116699 150.49561,91.374512 152.60303,91.918457 C 154.52295,92.414063 158.15771,91.935547 158.50732,89.398438 C 158.84521,86.950195 155.38135,85.850098 153.51318,86.066895 C 151.18213,86.337891 148.73975,87.90625 146.69873,88.998535 C 146.64209,89.029785 146.58252,89.063965 146.52588,89.094727"
   style="fill-rule:evenodd;stroke:none" />
		<path
   id="path197"
   d="M 146.48975,89.110352 C 147.31006,91.709961 149.85498,101.63037 154.43701,99.285645 C 156.66943,98.143555 154.87354,94.364746 153.70459,93.080078 C 152.05615,91.27002 149.31982,90.317871 147.10889,89.37207 C 146.90381,89.283692 146.69482,89.196289 146.48975,89.110352"
   style="fill-rule:evenodd;stroke:none" />
		<path
   id="path199"
   d="M 146.48584,89.102539 C 147.30811,86.501465 149.854,76.575684 154.43701,78.926758 C 156.66748,80.070313 154.87451,83.838379 153.70459,85.124512 C 152.0542,86.9375 149.31787,87.891601 147.10693,88.84082 C 146.8999,88.929199 146.69092,89.015625 146.48584,89.102539"
   style="fill-rule:evenodd;stroke:none" />
		<path
   id="path201"
   d="M 146.24561,95.045898 C 146.6167,96.718262 146.69385,99.226563 145.21826,100.44775 C 144.20068,101.29102 141.80615,100.9375 142.36963,99.151367 C 142.45459,98.883789 143.69092,98.400879 143.95752,97.985352 C 144.51514,97.114258 144.41748,95.543945 144.46826,94.561524 C 144.53271,93.286133 144.38721,91.913086 144.58447,90.671875 C 145.35498,91.981934 145.90771,93.5625 146.24561,95.045899"
   style="fill-rule:evenodd;stroke:none" />
		<path
   id="path203"
   d="M 146.24561,83.258789 C 146.61768,81.584961 146.69678,79.079102 145.21826,77.857422 C 144.25928,77.063965 141.771,77.321777 142.34619,79.107422 C 142.45166,79.435547 143.60889,79.78125 143.89404,80.185059 C 144.48779,81.022461 144.40186,82.589844 144.45752,83.554688 C 144.53467,84.90332 144.41162,86.291992 144.56787,87.625 C 144.57373,87.626953 144.57959,87.629395 144.58447,87.632813 C 145.354,86.324219 145.91162,84.742188 146.24561,83.258789"
   style="fill-rule:evenodd;stroke:none" />
		<path
   id="path205"
   d="M 142.35693,90.691406 C 140.52881,90.25 141.31006,86.297363 143.87744,88.294434 C 145.42139,89.496094 144.25732,90.366211 142.35693,90.691406"
   style="fill-rule:evenodd;stroke:none" />
		<path
   id="path207"
   d="M 146.52881,56.779297 C 148.43506,57.802246 150.49756,59.055664 152.60693,59.603027 C 154.52393,60.100098 158.1626,59.620606 158.50732,57.083008 C 158.83936,54.635742 155.38232,53.536133 153.51318,53.751465 C 151.18506,54.019531 148.73975,55.59082 146.70264,56.682617 C 146.64502,56.713867 146.58545,56.748535 146.52881,56.779297"
   style="fill-rule:evenodd;stroke:none" />
		<path
   id="path209"
   d="M 146.48584,56.794434 C 147.31006,59.395019 149.85303,69.316406 154.43701,66.970215 C 156.66846,65.828613 154.87451,62.052734 153.70459,60.768555 C 152.05225,58.956543 149.31787,58.004883 147.10693,57.056152 C 146.8999,56.967774 146.69092,56.880859 146.48584,56.794434"
   style="fill-rule:evenodd;stroke:none" />
		<path
   id="path211"
   d="M 146.48975,56.786621 C 147.31006,54.185547 149.85303,44.265137 154.43701,46.611328 C 156.66943,47.75293 154.87354,51.52832 153.70459,52.8125 C 152.0542,54.624512 149.3208,55.577148 147.10889,56.525391 C 146.90381,56.613281 146.69482,56.700195 146.48975,56.786621"
   style="fill-rule:evenodd;stroke:none" />
		<path
   id="path213"
   d="M 146.24561,62.726563 C 146.61768,64.404297 146.69678,66.903809 145.21826,68.12793 C 144.26025,68.921875 141.77002,68.671875 142.34619,66.881836 C 142.45166,66.553711 143.60889,66.208008 143.89404,65.804199 C 144.48779,64.966797 144.40186,63.399414 144.45752,62.43457 C 144.53467,61.085938 144.41162,59.697266 144.56787,58.364258 C 144.57373,58.362305 144.57959,58.359863 144.58447,58.356445 C 145.35303,59.663574 145.91064,61.244629 146.24561,62.726563"
   style="fill-rule:evenodd;stroke:none" />
		<path
   id="path215"
   d="M 146.24561,50.942871 C 146.61768,49.270508 146.69385,46.763184 145.21826,45.541992 C 144.25928,44.748047 141.7749,45.003906 142.34619,46.788086 C 142.45264,47.119141 143.60693,47.463379 143.89404,47.869141 C 144.48779,48.708008 144.40186,50.273438 144.45752,51.239258 C 144.53467,52.587891 144.41162,53.976563 144.56787,55.30957 C 144.57373,55.311524 144.57959,55.313965 144.58447,55.317383 C 145.35498,54.007813 145.90772,52.426758 146.24561,50.942871"
   style="fill-rule:evenodd;stroke:none" />
		<path
   id="path217"
   d="M 142.35693,58.375488 C 140.52881,57.936524 141.31104,53.976563 143.87744,55.975098 C 145.42334,57.179199 144.25732,58.050781 142.35693,58.375488"
   style="fill-rule:evenodd;stroke:none" />
		<path
   id="path219"
   d="M 146.52588,24.463379 C 148.4292,25.487793 150.49756,26.743164 152.60693,27.287109 C 154.52686,27.782715 158.15771,27.303711 158.50732,24.767578 C 158.84424,22.319824 155.38232,21.215332 153.51318,21.431641 C 151.18213,21.70166 148.73877,23.274414 146.69873,24.367187 C 146.64209,24.398437 146.5835,24.432617 146.52588,24.463379"
   style="fill-rule:evenodd;stroke:none" />
		<path
   id="path221"
   d="M 146.48584,24.478516 C 147.31006,27.079102 149.85303,37.000977 154.43701,34.654297 C 156.66846,33.512695 154.87451,29.736816 153.70459,28.452637 C 152.05225,26.640625 149.31787,25.688965 147.10693,24.740234 C 146.8999,24.652344 146.69092,24.56543 146.48584,24.478516"
   style="fill-rule:evenodd;stroke:none" />
		<path
   id="path223"
   d="M 146.48584,24.471191 C 147.31006,21.870606 149.85303,11.949219 154.43701,14.29541 C 156.66846,15.437012 154.87451,19.212891 153.70459,20.49707 C 152.05225,22.309082 149.31787,23.260742 147.10693,24.209473 C 146.8999,24.297851 146.69092,24.384766 146.48584,24.471191"
   style="fill-rule:evenodd;stroke:none" />
		<path
   id="path225"
   d="M 146.24561,30.415039 C 146.6167,32.086914 146.69385,34.594727 145.21826,35.816406 C 144.2583,36.611328 141.77197,36.350586 142.34619,34.565918 C 142.45166,34.238281 143.60889,33.89209 143.89404,33.48877 C 144.48779,32.650879 144.40186,31.083984 144.45752,30.118652 C 144.53467,28.776856 144.39209,27.358399 144.57764,26.044922 C 145.36279,27.319336 145.91064,28.944824 146.24561,30.415039"
   style="fill-rule:evenodd;stroke:none" />
		<path
   id="path227"
   d="M 146.24561,18.627441 C 146.6167,16.955078 146.69385,14.447754 145.21826,13.226074 C 144.2583,12.431152 141.77197,12.691406 142.34619,14.476563 C 142.45166,14.804199 143.60889,15.149902 143.89404,15.553711 C 144.48779,16.391602 144.40186,17.958008 144.45752,18.923828 C 144.53467,20.265625 144.39209,21.683594 144.57764,22.997559 C 145.36279,21.722168 145.91064,20.097656 146.24561,18.627441"
   style="fill-rule:evenodd;stroke:none" />
		<path
   id="path229"
   d="M 142.35693,26.060059 C 140.52783,25.620117 141.31201,21.668945 143.87744,23.65918 C 145.42529,24.860352 144.25342,25.731445 142.35693,26.060059"
   style="fill-rule:evenodd;stroke:none" />
		<path
   id="path231"
   d="M 146.52588,121.41016 C 148.4292,122.43457 150.49756,123.69043 152.60693,124.23438 C 154.52686,124.72949 158.15771,124.25098 158.50732,121.71387 C 158.84424,119.26563 155.38232,118.16602 153.51318,118.38281 C 151.18213,118.65381 148.73975,120.22168 146.69873,121.31445 C 146.64209,121.34473 146.5835,121.37988 146.52588,121.41016"
   style="fill-rule:evenodd;stroke:none" />
		<path
   id="path233"
   d="M 146.48584,121.42578 C 147.31006,124.02637 149.85303,133.94824 154.43701,131.60156 C 156.66846,130.45996 154.87451,126.68457 153.70459,125.39941 C 152.05225,123.58789 149.31787,122.63574 147.10693,121.6875 C 146.8999,121.59863 146.69092,121.5127 146.48584,121.42578"
   style="fill-rule:evenodd;stroke:none" />
		<path
   id="path235"
   d="M 146.48584,121.41797 C 147.31006,118.81787 149.85303,108.896 154.43701,111.24268 C 156.66846,112.38428 154.87451,116.15967 153.70459,117.44385 C 152.05225,119.25586 149.31787,120.2085 147.10693,121.15723 C 146.8999,121.24512 146.69092,121.33105 146.48584,121.41797"
   style="fill-rule:evenodd;stroke:none" />
		<path
   id="path237"
   d="M 146.24561,127.3623 C 146.6167,129.03418 146.69385,131.54199 145.21826,132.7627 C 144.25732,133.55957 141.7749,133.29785 142.34619,131.5127 C 142.45166,131.18457 143.60791,130.83496 143.89404,130.43262 C 144.48779,129.59375 144.40186,128.02734 144.45752,127.06152 C 144.53467,125.71484 144.41162,124.32715 144.56787,122.99512 C 144.57373,122.99316 144.57959,122.99121 144.58447,122.9873 C 145.35498,124.29785 145.90772,125.87793 146.24561,127.3623"
   style="fill-rule:evenodd;stroke:none" />
		<path
   id="path239"
   d="M 146.24561,115.57422 C 146.6167,113.90088 146.69482,111.39551 145.21826,110.17285 C 144.2583,109.37793 141.77197,109.63818 142.34619,111.42334 C 142.45166,111.75098 143.60889,112.09766 143.89404,112.50098 C 144.48779,113.33887 144.40186,114.90527 144.45752,115.87061 C 144.53467,117.2124 144.39209,118.63037 144.57764,119.94482 C 145.36084,118.66846 145.91064,117.04492 146.24561,115.57422"
   style="fill-rule:evenodd;stroke:none" />
		<path
   id="path241"
   d="M 142.35693,123.00293 C 140.53271,122.57422 141.30908,118.60742 143.87744,120.61035 C 145.41748,121.81152 144.25342,122.68457 142.35693,123.00293"
   style="fill-rule:evenodd;stroke:none" />
		<path
   id="path243"
   d="M 20.816895,218.3584 C 18.911133,219.37891 16.848633,220.63574 14.739746,221.18066 C 12.819824,221.67676 9.1855469,221.19824 8.8359375,218.66113 C 8.4980469,216.21289 11.960938,215.11328 13.829102,215.33008 C 16.160156,215.60059 18.603516,217.16895 20.643555,218.26172 C 20.701172,218.29199 20.760742,218.32715 20.816895,218.3584"
   style="fill-rule:evenodd;stroke:none" />
		<path
   id="path245"
   d="M 20.853516,218.37305 C 20.033203,220.97168 17.487793,230.89258 12.905273,228.54883 C 10.67334,227.40723 12.469238,223.62793 13.638672,222.34277 C 15.288086,220.53223 18.022949,219.58105 20.233398,218.63574 C 20.439453,218.54687 20.647461,218.45996 20.853516,218.37305"
   style="fill-rule:evenodd;stroke:none" />
		<path
   id="path247"
   d="M 20.856934,218.36523 C 20.035156,215.76367 17.489258,205.83984 12.905273,208.18945 C 10.675293,209.33301 12.467773,213.10059 13.638672,214.3877 C 15.289551,216.19922 18.023437,217.15527 20.236328,218.10449 C 20.441895,218.19238 20.651367,218.27832 20.856934,218.36523"
   style="fill-rule:evenodd;stroke:none" />
		<path
   id="path249"
   d="M 21.097168,224.30957 C 20.725586,225.98145 20.648926,228.48926 22.124512,229.70996 C 23.084961,230.50488 25.56836,230.24316 24.996094,228.45996 C 24.890137,228.12988 23.73584,227.78516 23.448731,227.37988 C 22.854981,226.54199 22.94043,224.97754 22.884766,224.0127 C 22.807617,222.66504 22.931152,221.27539 22.774902,219.94238 C 22.769043,219.94043 22.763184,219.93848 22.757813,219.93457 C 21.98877,221.24512 21.435547,222.8252 21.097168,224.30957"
   style="fill-rule:evenodd;stroke:none" />
		<path
   id="path251"
   d="M 21.097168,212.52148 C 20.724121,210.84766 20.646484,208.34082 22.124512,207.12012 C 23.084961,206.32715 25.570801,206.58496 24.996094,208.37012 C 24.890625,208.69824 23.734863,209.04395 23.448731,209.44824 C 22.854981,210.28516 22.94043,211.85254 22.884766,212.81738 C 22.807617,214.16504 22.931152,215.55566 22.774902,216.8877 C 22.769043,216.88965 22.763184,216.89258 22.757813,216.89551 C 21.989258,215.58691 21.431152,214.00488 21.097168,212.52148"
   style="fill-rule:evenodd;stroke:none" />
		<path
   id="path253"
   d="M 24.986328,219.9541 C 26.814941,219.51172 26.031738,215.56055 23.465332,217.55762 C 21.920898,218.75879 23.085449,219.62988 24.986328,219.9541"
   style="fill-rule:evenodd;stroke:none" />
		<path
   id="path255"
   d="M 20.813477,186.04199 C 18.90625,187.06445 16.846191,188.31934 14.736328,188.86621 C 12.818848,189.3623 9.1806641,188.88379 8.8359376,186.3457 C 8.5034181,183.89941 11.960449,182.79883 13.829102,183.01465 C 16.158203,183.28223 18.603028,184.85352 20.640137,185.94629 C 20.698242,185.97656 20.756836,186.01172 20.813477,186.04199"
   style="fill-rule:evenodd;stroke:none" />
		<path
   id="path257"
   d="M 20.856934,186.05762 C 20.032715,188.6582 17.490234,198.5791 12.905273,196.2334 C 10.674805,195.0918 12.467773,191.31543 13.638672,190.03125 C 15.290527,188.21973 18.023926,187.26758 20.236328,186.31934 C 20.441895,186.23047 20.651367,186.14355 20.856934,186.05762"
   style="fill-rule:evenodd;stroke:none" />
		<path
   id="path259"
   d="M 20.853516,186.0498 C 20.032227,183.44824 17.489746,173.52832 12.905273,175.87402 C 10.674316,177.01563 12.46875,180.79004 13.638672,182.0752 C 15.288574,183.88672 18.021973,184.84082 20.233398,185.78809 C 20.438965,185.87598 20.647949,185.96289 20.853516,186.0498"
   style="fill-rule:evenodd;stroke:none" />
		<path
   id="path261"
   d="M 21.097168,191.98926 C 20.724609,193.66699 20.646484,196.16699 22.124512,197.39063 C 23.083008,198.18457 25.572266,197.93457 24.996094,196.14453 C 24.890625,195.81641 23.734863,195.4707 23.448731,195.06738 C 22.854981,194.22949 22.94043,192.66309 22.884766,191.69727 C 22.807617,190.34863 22.931152,188.95996 22.774902,187.62695 C 22.769043,187.625 22.763184,187.62207 22.757813,187.61914 C 21.990234,188.92676 21.432129,190.50684 21.097168,191.98926"
   style="fill-rule:evenodd;stroke:none" />
		<path
   id="path263"
   d="M 21.097168,180.20605 C 20.725586,178.5332 20.648926,176.02637 22.124512,174.80469 C 23.083985,174.01074 25.573731,174.27051 24.996094,176.05469 C 24.890137,176.38184 23.734863,176.72754 23.448731,177.13184 C 22.854492,177.9707 22.94043,179.53613 22.884766,180.50195 C 22.807617,181.85059 22.931152,183.23926 22.774902,184.57227 C 22.769043,184.57422 22.763184,184.57715 22.757813,184.58008 C 21.98877,183.26953 21.435547,181.69043 21.097168,180.20605"
   style="fill-rule:evenodd;stroke:none" />
		<path
   id="path265"
   d="M 24.986328,187.63867 C 26.81543,187.19824 26.030273,183.23926 23.465332,185.2373 C 21.918945,186.44238 23.085938,187.31348 24.986328,187.63867"
   style="fill-rule:evenodd;stroke:none" />
		<path
   id="path267"
   d="M 20.816895,153.72559 C 18.913086,154.75 16.844727,156.00586 14.736328,156.5498 C 12.816406,157.0459 9.1850586,156.56738 8.8359375,154.03027 C 8.4990234,151.58301 11.959473,150.47852 13.829102,150.69434 C 16.160645,150.96484 18.604004,152.53711 20.643555,153.62988 C 20.701172,153.66113 20.760254,153.69629 20.816895,153.72559"
   style="fill-rule:evenodd;stroke:none" />
		<path
   id="path269"
   d="M 20.856934,153.74121 C 20.032715,156.34277 17.490723,166.2627 12.905273,163.91699 C 10.674805,162.77637 12.467773,159 13.638672,157.71582 C 15.290039,155.9043 18.024414,154.95215 20.236328,154.00293 C 20.441895,153.91504 20.651367,153.82813 20.856934,153.74121"
   style="fill-rule:evenodd;stroke:none" />
		<path
   id="path271"
   d="M 20.856934,153.7334 C 20.032715,151.13281 17.490234,141.21289 12.905273,143.55762 C 10.674316,144.69922 12.468262,148.47559 13.638672,149.75977 C 15.290527,151.57129 18.024414,152.52344 20.236328,153.47168 C 20.441895,153.56055 20.651367,153.64746 20.856934,153.7334"
   style="fill-rule:evenodd;stroke:none" />
		<path
   id="path273"
   d="M 21.097168,159.67773 C 20.725586,161.35059 20.648926,163.85742 22.124512,165.0791 C 23.084961,165.87402 25.570801,165.61328 24.996094,163.8291 C 24.890625,163.50098 23.734863,163.15527 23.448731,162.75098 C 22.854492,161.91309 22.94043,160.34668 22.884766,159.38184 C 22.808106,158.04004 22.95166,156.62109 22.764649,155.30762 C 21.979981,156.58398 21.432617,158.20703 21.097168,159.67773"
   style="fill-rule:evenodd;stroke:none" />
		<path
   id="path275"
   d="M 21.097168,147.88965 C 20.725586,146.21777 20.648926,143.70996 22.124512,142.48926 C 23.084961,141.69434 25.570313,141.9541 24.996094,143.73926 C 24.890625,144.06738 23.734375,144.41309 23.448731,144.81641 C 22.854492,145.6543 22.94043,147.2207 22.884766,148.18652 C 22.808106,149.52832 22.95166,150.94727 22.764649,152.26074 C 21.979492,150.98438 21.432617,149.36035 21.097168,147.88965"
   style="fill-rule:evenodd;stroke:none" />
		<path
   id="path277"
   d="M 24.986328,155.32324 C 26.815918,154.88184 26.029785,150.93262 23.465332,152.92188 C 21.916504,154.12402 23.089844,154.99414 24.986328,155.32324"
   style="fill-rule:evenodd;stroke:none" />
		<path
   id="path279"
   d="M 20.816895,89.094727 C 18.912598,90.116699 16.847656,91.374024 14.739746,91.918457 C 12.819824,92.414063 9.1855469,91.935547 8.8359375,89.398438 C 8.4985352,86.950195 11.960938,85.850098 13.829102,86.066895 C 16.160645,86.337891 18.603027,87.90625 20.643555,88.998535 C 20.701172,89.029297 20.760254,89.064453 20.816895,89.094727"
   style="fill-rule:evenodd;stroke:none" />
		<path
   id="path281"
   d="M 20.853516,89.110352 C 20.032715,91.709961 17.487793,101.62988 12.905273,99.285645 C 10.67334,98.144043 12.469238,94.364746 13.638672,93.080078 C 15.287598,91.27002 18.022949,90.317383 20.233398,89.37207 C 20.438965,89.283692 20.647949,89.196289 20.853516,89.110352"
   style="fill-rule:evenodd;stroke:none" />
		<path
   id="path283"
   d="M 20.856934,89.102539 C 20.035156,86.500977 17.48877,76.57666 12.905273,78.926758 C 10.675293,80.070313 12.467285,83.838379 13.638672,85.124512 C 15.289551,86.9375 18.023926,87.891601 20.236328,88.84082 C 20.441895,88.929199 20.651855,89.015625 20.856934,89.102539"
   style="fill-rule:evenodd;stroke:none" />
		<path
   id="path285"
   d="M 21.097168,95.045898 C 20.725586,96.71875 20.648926,99.226074 22.124512,100.44775 C 23.143067,101.29053 25.53711,100.9375 24.973145,99.151367 C 24.888672,98.883789 23.651367,98.400879 23.385254,97.985352 C 22.827149,97.114258 22.924805,95.543945 22.875,94.561524 C 22.810059,93.286133 22.956055,91.912109 22.757813,90.671875 C 21.988281,91.982422 21.435547,93.5625 21.097168,95.045899"
   style="fill-rule:evenodd;stroke:none" />
		<path
   id="path287"
   d="M 21.097168,83.258789 C 20.724609,81.584961 20.646484,79.078613 22.124512,77.857422 C 23.084473,77.064453 25.571289,77.321777 24.996094,79.107422 C 24.890625,79.435547 23.734863,79.78125 23.448731,80.185059 C 22.854981,81.022461 22.94043,82.589844 22.884766,83.554688 C 22.807617,84.90332 22.931152,86.29248 22.774902,87.625 C 22.769043,87.626953 22.763184,87.629395 22.757813,87.632813 C 21.989258,86.32373 21.431152,84.742188 21.097168,83.258789"
   style="fill-rule:evenodd;stroke:none" />
		<path
   id="path289"
   d="M 24.986328,90.691406 C 26.814941,90.249023 26.031738,86.297852 23.465332,88.294434 C 21.92041,89.496582 23.085938,90.366211 24.986328,90.691406"
   style="fill-rule:evenodd;stroke:none" />
		<path
   id="path291"
   d="M 20.813477,56.779297 C 18.907227,57.801758 16.845703,59.055664 14.736328,59.603027 C 12.818848,60.100098 9.1806641,59.620606 8.8359376,57.083008 C 8.5034181,54.635742 11.960449,53.536133 13.829102,53.751465 C 16.158203,54.019531 18.602539,55.591309 20.640137,56.682617 C 20.698242,56.713867 20.756836,56.748535 20.813477,56.779297"
   style="fill-rule:evenodd;stroke:none" />
		<path
   id="path293"
   d="M 20.856934,56.794434 C 20.032715,59.395508 17.490234,69.31543 12.905273,66.970215 C 10.674805,65.829102 12.468262,62.052734 13.638672,60.768555 C 15.290527,58.957031 18.023926,58.004883 20.236328,57.056152 C 20.441895,56.967774 20.651855,56.880859 20.856934,56.794434"
   style="fill-rule:evenodd;stroke:none" />
		<path
   id="path295"
   d="M 20.853516,56.786621 C 20.032715,54.185547 17.489746,44.265625 12.905273,46.611328 C 10.673828,47.752441 12.46875,51.52832 13.638672,52.8125 C 15.289062,54.624023 18.021973,55.577148 20.233398,56.525391 C 20.438965,56.613281 20.647949,56.700195 20.853516,56.786621"
   style="fill-rule:evenodd;stroke:none" />
		<path
   id="path297"
   d="M 21.097168,62.726563 C 20.724609,64.404297 20.646484,66.904297 22.124512,68.12793 C 23.083008,68.921387 25.572266,68.671875 24.996094,66.881836 C 24.890625,66.553711 23.734863,66.208008 23.448731,65.804199 C 22.854981,64.966797 22.94043,63.399414 22.884766,62.43457 C 22.807617,61.085938 22.931152,59.696777 22.774902,58.364258 C 22.769043,58.362305 22.763184,58.359863 22.757813,58.356445 C 21.990234,59.664063 21.432129,61.244141 21.097168,62.726563"
   style="fill-rule:evenodd;stroke:none" />
		<path
   id="path299"
   d="M 21.097168,50.942871 C 20.725586,49.270019 20.648926,46.763184 22.124512,45.541992 C 23.083496,44.748047 25.567383,45.003906 24.996094,46.788086 C 24.890137,47.119141 23.736328,47.463379 23.448731,47.869141 C 22.854492,48.708008 22.94043,50.273438 22.884766,51.239258 C 22.807617,52.587402 22.931152,53.976563 22.774902,55.30957 C 22.768555,55.311524 22.763184,55.313965 22.757813,55.317383 C 21.98877,54.006836 21.435547,52.426758 21.097168,50.942871"
   style="fill-rule:evenodd;stroke:none" />
		<path
   id="path301"
   d="M 24.986328,58.375488 C 26.814941,57.935547 26.030762,53.976563 23.465332,55.975098 C 21.919434,57.179199 23.085938,58.050781 24.986328,58.375488"
   style="fill-rule:evenodd;stroke:none" />
		<path
   id="path303"
   d="M 20.816895,24.463379 C 18.913086,25.487793 16.844727,26.743164 14.736328,27.287109 C 12.816406,27.782715 9.1850586,27.303711 8.8359375,24.767578 C 8.4990234,22.319824 11.959473,21.215332 13.829102,21.431641 C 16.160645,21.70166 18.604004,23.274414 20.643555,24.367187 C 20.701172,24.398437 20.760254,24.432617 20.816895,24.463379"
   style="fill-rule:evenodd;stroke:none" />
		<path
   id="path305"
   d="M 20.856934,24.478516 C 20.032715,27.080078 17.490234,37 12.905273,34.654297 C 10.674805,33.513184 12.468262,29.736816 13.638672,28.452637 C 15.290527,26.641113 18.024414,25.689453 20.236328,24.740234 C 20.441895,24.652344 20.651855,24.56543 20.856934,24.478516"
   style="fill-rule:evenodd;stroke:none" />
		<path
   id="path307"
   d="M 20.856934,24.471191 C 20.033203,21.870117 17.490234,11.950195 12.905273,14.29541 C 10.674316,15.436523 12.468262,19.212891 13.638672,20.49707 C 15.290527,22.308594 18.024414,23.260742 20.236328,24.209473 C 20.441895,24.297851 20.651855,24.384766 20.856934,24.471191"
   style="fill-rule:evenodd;stroke:none" />
		<path
   id="path309"
   d="M 21.097168,30.415039 C 20.725586,32.087402 20.648926,34.594727 22.124512,35.816406 C 23.084961,36.611328 25.570801,36.350586 24.996094,34.565918 C 24.890625,34.237793 23.734863,33.89209 23.448731,33.48877 C 22.854492,32.650879 22.94043,31.083984 22.884766,30.118652 C 22.808106,28.777344 22.95166,27.35791 22.764649,26.044922 C 21.979492,27.320313 21.432129,28.944336 21.097168,30.415039"
   style="fill-rule:evenodd;stroke:none" />
		<path
   id="path311"
   d="M 21.097168,18.627441 C 20.725586,16.95459 20.648926,14.447754 22.124512,13.226074 C 23.084961,12.431152 25.570801,12.691406 24.996094,14.476563 C 24.890625,14.804199 23.734863,15.149902 23.448731,15.553711 C 22.854492,16.391602 22.94043,17.958008 22.884766,18.923828 C 22.808106,20.265137 22.95166,21.684082 22.764649,22.997559 C 21.979981,21.720703 21.432617,20.098145 21.097168,18.627441"
   style="fill-rule:evenodd;stroke:none" />
		<path
   id="path313"
   d="M 24.986328,26.060059 C 26.81543,25.619141 26.030273,21.669434 23.465332,23.65918 C 21.916504,24.86084 23.089844,25.731934 24.986328,26.060059"
   style="fill-rule:evenodd;stroke:none" />
		<path
   id="path315"
   d="M 20.816895,121.41016 C 18.913086,122.43457 16.844238,123.69043 14.736328,124.23438 C 12.815918,124.72949 9.1850586,124.25098 8.8359375,121.71387 C 8.4985352,119.26563 11.960449,118.16602 13.829102,118.38281 C 16.160645,118.65381 18.603027,120.22168 20.643555,121.31445 C 20.701172,121.34473 20.760254,121.37988 20.816895,121.41016"
   style="fill-rule:evenodd;stroke:none" />
		<path
   id="path317"
   d="M 20.856934,121.42578 C 20.032715,124.02637 17.490234,133.94629 12.905273,131.60156 C 10.674805,130.45996 12.468262,126.68457 13.638672,125.39941 C 15.290527,123.58887 18.024414,122.63574 20.236328,121.6875 C 20.441895,121.59863 20.651367,121.5127 20.856934,121.42578"
   style="fill-rule:evenodd;stroke:none" />
		<path
   id="path319"
   d="M 20.856934,121.41797 C 20.032715,118.81689 17.490234,108.89697 12.905273,111.24268 C 10.674805,112.38379 12.468262,116.15967 13.638672,117.44385 C 15.290527,119.25537 18.023926,120.20801 20.236328,121.15723 C 20.441895,121.24512 20.651367,121.33105 20.856934,121.41797"
   style="fill-rule:evenodd;stroke:none" />
		<path
   id="path321"
   d="M 21.097168,127.3623 C 20.725586,129.03516 20.648926,131.54199 22.124512,132.7627 C 23.085938,133.55957 25.567871,133.29785 24.996094,131.5127 C 24.890625,131.18359 23.734863,130.83594 23.448731,130.43262 C 22.854492,129.59473 22.94043,128.02734 22.884766,127.06152 C 22.807617,125.71484 22.931152,124.32715 22.774902,122.99512 C 22.769043,122.99316 22.763184,122.99121 22.757813,122.9873 C 21.98877,124.29785 21.435547,125.87793 21.097168,127.3623"
   style="fill-rule:evenodd;stroke:none" />
		<path
   id="path323"
   d="M 21.097168,115.57422 C 20.727051,113.90039 20.647949,111.39551 22.124512,110.17285 C 23.084961,109.37793 25.570801,109.63867 24.996094,111.42334 C 24.890625,111.75098 23.734375,112.09717 23.448731,112.50098 C 22.854492,113.33887 22.94043,114.90527 22.884766,115.87061 C 22.808106,117.21191 22.95166,118.63135 22.764649,119.94482 C 21.981445,118.66748 21.432617,117.04541 21.097168,115.57422"
   style="fill-rule:evenodd;stroke:none" />
		<path
   id="path325"
   d="M 24.986328,123.00293 C 26.810547,122.57324 26.032715,118.60742 23.465332,120.61035 C 21.925293,121.81152 23.089355,122.68457 24.986328,123.00293"
   style="fill-rule:evenodd;stroke:none" />
		<path
   id="path327"
   d="M 73.150879,146.58203 L 73.177734,146.58203"
   style="fill:none;stroke-width:0.02682629;stroke-miterlimit:10" />
		
		
		
		
		
		
		
		
		
		
		
		
		
		
		
		
		
		
		
		
		
		
		
		
		
		
		
		
		
		
		
		
		
		
		
		
		
		
		
		
		
		
		
		
		
		
		
		
		
		
		
		
		
		
		
		
		
		
		
		
		
		
		
		
		
		
		
		
		
		
		
		
		
		
		
		
		
		
		
		
		
		
		<path
   id="path493"
   d="M 8.3720703,6.6435547 C 6.0195312,6.6435547 6.8710937,13.0625 6.8710937,14.344727 C 6.8710937,20.206543 6.8710937,26.068359 6.8710937,31.930176 C 6.8710937,51.31543 6.8710937,70.701172 6.8710937,90.086426 C 6.8710937,131.64355 6.8710937,173.2002 6.8710937,214.75684 C 6.8710937,219.92285 6.8710937,225.08887 6.8710937,230.25293 C 6.8710937,232.00488 6.2050781,235.73926 8.7954101,235.73926 C 22.132812,235.73926 35.469727,235.73926 48.807129,235.73926 C 85.208496,235.73926 121.60889,235.73926 158.00928,235.73926 C 160.75732,235.73926 160.22119,232.80273 160.22119,230.82324 C 160.22119,225.875 160.22119,220.92676 160.22119,215.97754 C 160.22119,197.64355 160.22119,179.30762 160.22119,160.97266 C 160.22119,118.41211 160.22119,75.851074 160.22119,33.290039 C 160.22119,27.227539 160.22119,21.164063 160.22119,15.101074 C 160.22119,13.058106 160.68896,10.382813 160.22119,8.3750002 C 160.22119,5.3969729 151.76416,6.6435549 150.09717,6.6435549 C 142.12646,6.6435549 134.15674,6.6435549 126.18701,6.6435549 C 87.837402,6.6435549 49.487305,6.6435549 11.137695,6.6435549 C 10.21582,6.6435549 9.2939453,6.6435549 8.3720703,6.6435549"
   style="fill:none;stroke:#989cc7;stroke-width:1.28766251;stroke-miterlimit:10" />
	</g>
</svg>
